# xmcd
#
# Track frame offsets: 
#        187
#        40252
#        78890
#        95070
#        121325
#        179262
#        237157
#        254272
#        284390
#        307100
#
# Disc length: 4499 seconds
#
# Revision: 0
# Processed by: cddbd v1.5.2PL0 Copyright (c) Steve Scherf et al.
# Submitted via: ExactAudioCopy v1.0b1
#
DISCID=8411910a
DTITLE=Kurt Masur - Beethoven Symphonien No.1 and 2, CD1
DYEAR=1990
DGENRE=Classical
TTITLE0=Symphony No. 1 in C major - 1. Adagio molto. Allegro con brio
TTITLE1=Symphony No. 1 in C major - 2. Andante cantabile con moto
TTITLE2=Symphony No. 1 in C major - 3. Menuetto
TTITLE3=Symphony No. 1 in C major - 4. Finale
TTITLE4=Symphony No. 2 in D major, Op. 36 - 1. Adagio molto allegro co
TTITLE4=n brio
TTITLE5=Symphony No. 2 in D major, Op. 36 - 2. Larghetto
TTITLE6=Symphony No. 2 in D major, Op. 36 - 3. Scherzo 
TTITLE7=Symphony No. 2 in D major, Op. 36 - 4. Allegro molto
TTITLE8=The Ruins of Athens-Overture Op 113
TTITLE9=King Stephen-Overture Op 117
EXTD=
EXTT0=
EXTT1=
EXTT2=
EXTT3=
EXTT4=
EXTT5=
EXTT6=
EXTT7=
EXTT8=
EXTT9=
PLAYORDER=
